<svg xmlns="http://www.w3.org/2000/svg" version="1.1" xmlns:xlink="http://www.w3.org/1999/xlink" viewBox="0 0 200 200"><rect width="200" height="200" fill="url('#gradient')"></rect><defs><linearGradient id="gradient" gradientTransform="rotate(314 0.5 0.5)"><stop offset="0%" stop-color="#fbfbfb"></stop><stop offset="100%" stop-color="#192025"></stop></linearGradient></defs><g><g fill="#192025" transform="matrix(2.2524124881740777,0,0,2.2524124881740777,5.485880203695935,116.01891017343598)" stroke="#ef0108" stroke-width="0.95"><path d="M9.17-4.81L12.58-4.81Q12.51-3.33 11.78-2.19Q11.04-1.05 9.72-0.43Q8.40 0.20 6.70 0.20L6.70 0.20Q3.90 0.20 2.29-1.63Q0.67-3.46 0.67-6.79L0.67-6.79L0.67-7.49Q0.67-9.58 1.40-11.15Q2.13-12.71 3.50-13.57Q4.86-14.42 6.66-14.42L6.66-14.42Q9.25-14.42 10.82-13.06Q12.39-11.70 12.61-9.31L12.61-9.31L9.19-9.31Q9.15-10.61 8.54-11.17Q7.92-11.74 6.66-11.74L6.66-11.74Q5.38-11.74 4.79-10.78Q4.19-9.82 4.16-7.72L4.16-7.72L4.16-6.72Q4.16-4.44 4.73-3.47Q5.30-2.49 6.70-2.49L6.70-2.49Q7.88-2.49 8.51-3.05Q9.13-3.60 9.17-4.81L9.17-4.81ZM17.18-14.22L19.50-9.49L21.83-14.22L25.74-14.22L21.77-7.17L25.85 0L21.89 0L19.50-4.81L17.11 0L13.16 0L17.24-7.17L13.27-14.22L17.18-14.22ZM30.62-14.22L30.62 0L27.20 0L27.20-14.22L30.62-14.22ZM36.65-14.22L36.65 0L33.23 0L33.23-14.22L36.65-14.22ZM42.69-14.22L42.69 0L39.27 0L39.27-14.22L42.69-14.22ZM49.75 0L45.07 0L45.07-14.22L49.65-14.22Q51.53-14.22 53.04-13.36Q54.54-12.51 55.39-10.95Q56.23-9.39 56.24-7.46L56.24-7.46L56.24-6.81Q56.24-4.85 55.42-3.31Q54.59-1.76 53.09-0.88Q51.59-0.01 49.75 0L49.75 0ZM49.65-11.57L48.50-11.57L48.50-2.64L49.69-2.64Q51.16-2.64 51.95-3.69Q52.74-4.74 52.74-6.81L52.74-6.81L52.74-7.42Q52.74-9.48 51.95-10.53Q51.16-11.57 49.65-11.57L49.65-11.57ZM66.70 0L65.87-2.66L61.17-2.66L60.35 0L56.69 0L61.90-14.22L65.13-14.22L70.38 0L66.70 0ZM63.52-10.23L61.99-5.30L65.05-5.30L63.52-10.23ZM83.25-7.47L83.25-6.82Q83.25-4.74 82.48-3.13Q81.71-1.53 80.29-0.67Q78.87 0.20 77.05 0.20Q75.23 0.20 73.83-0.64Q72.42-1.47 71.64-3.03Q70.85-4.58 70.81-6.59L70.81-6.59L70.81-7.39Q70.81-9.48 71.58-11.08Q72.34-12.68 73.77-13.54Q75.21-14.41 77.03-14.41L77.03-14.41Q78.84-14.41 80.25-13.55Q81.67-12.70 82.46-11.11Q83.24-9.52 83.25-7.47L83.25-7.47ZM79.77-6.76L79.77-7.41Q79.77-9.53 79.06-10.63Q78.35-11.73 77.03-11.73L77.03-11.73Q74.45-11.73 74.31-7.86L74.31-7.86L74.30-6.82Q74.30-4.73 74.99-3.60Q75.68-2.48 77.05-2.48L77.05-2.48Q78.35-2.48 79.05-3.58Q79.76-4.69 79.77-6.76L79.77-6.76Z"></path></g></g></svg>